<svg width="310" height="184" viewBox="0 0 310 184" fill="none" xmlns="http://www.w3.org/2000/svg">
<g clip-path="url(#clip0_1_972)">
<g filter="url(#filter0_d_1_972)">
<path d="M229.94 85.7569C240.093 90.948 248.878 98.0697 254.307 107.133C259.728 116.183 261.824 127.202 258.557 140.251L258.557 140.252C258.472 140.594 258.124 140.803 257.78 140.718C257.482 140.642 257.284 140.366 257.297 140.068L257.315 139.94C260.496 127.24 258.424 116.475 253.077 107.628C247.738 98.7953 239.154 91.9075 229.355 86.8973C219.466 81.8417 208.306 78.6635 197.854 77.3305C187.41 75.9985 177.631 76.5036 170.516 78.8544C170.173 78.9681 169.982 78.8909 169.87 78.8156C169.733 78.7233 169.656 78.5892 169.636 78.5495L169.636 78.5482C169.602 78.4808 169.553 78.3616 169.555 78.2267C169.556 78.1269 169.583 77.9878 169.729 77.8262L169.8 77.7555C169.798 77.757 169.806 77.7508 169.827 77.7351C169.846 77.7202 169.873 77.7001 169.907 77.6765C169.976 77.6288 170.069 77.5686 170.183 77.4964C170.411 77.352 170.715 77.1672 171.075 76.9528C171.795 76.524 172.73 75.9834 173.705 75.4235C175.162 74.5863 176.714 73.7037 177.765 73.0968L178.627 72.5931C179.3 72.1925 180.26 71.6923 181.408 71.0963C182.55 70.5034 183.867 69.8216 185.233 69.0654C187.79 67.6507 190.55 65.9609 192.703 64.0775L193.124 63.6985C194.372 62.5485 195.433 61.2946 195.943 59.9498C196.466 58.5707 196.397 57.1181 195.431 55.6612L195.431 55.6618C194.456 54.1907 192.964 53.3672 191.188 52.9924C189.423 52.6197 187.35 52.6832 185.148 52.9982C179.505 53.8063 172.803 56.4305 167.032 59.3211C161.269 62.2078 156.355 65.4007 154.309 67.3895L154.308 67.3902C154.054 67.6377 153.649 67.6316 153.404 67.3794C153.157 67.1259 153.162 66.7211 153.417 66.4728C155.432 64.5124 160.435 61.2352 166.413 58.2327C172.384 55.2341 179.248 52.5493 184.966 51.7306C190.306 50.9663 194.477 51.9047 196.498 54.9528C197.622 56.6473 197.798 58.2953 197.319 59.8886C196.861 61.4063 195.797 62.9093 194.298 64.3528L193.992 64.6405C191.818 66.6467 188.87 68.4815 186.087 70.0335C184.699 70.8077 183.361 71.5068 182.188 72.1207C181.312 72.5789 180.522 72.993 179.878 73.3527L179.284 73.6938C178.82 73.9687 177.94 74.4843 176.914 75.0776L177.237 76.0055C191.919 73.8445 212.818 77.0022 229.94 85.7569Z" fill="black" stroke="black"/>
<path d="M271.903 106.788C272.219 106.939 272.356 107.322 272.206 107.644L272.205 107.645C268.12 116.188 264.01 124.258 261.249 133.429L261.25 133.429C261.122 133.851 260.819 135.328 260.475 136.889C260.122 138.485 259.721 140.199 259.386 141.178L259.385 141.179C259.182 141.777 258.965 142.117 258.864 142.223C258.726 142.365 258.589 142.423 258.474 142.449L258.469 142.45C258.392 142.469 258.284 142.483 258.17 142.459C258.067 142.437 257.93 142.378 257.788 142.204L257.787 142.201C257.784 142.197 257.771 142.179 257.745 142.136C257.718 142.091 257.686 142.031 257.649 141.961C257.575 141.821 257.489 141.649 257.406 141.475C257.25 141.15 257.078 140.774 257.045 140.707C255.72 137.974 254.534 135.083 253.003 132.381L253.003 132.38C249.607 126.389 244.813 120.851 238.954 117.12C238.694 116.954 238.594 116.631 238.701 116.351L238.759 116.235C238.949 115.939 239.345 115.849 239.645 116.039C245.648 119.867 250.604 125.551 254.118 131.749C255.437 134.074 256.482 136.503 257.633 138.958L258.236 140.244L258.571 138.864C259.112 136.644 259.863 133.588 260.024 133.06L260.025 133.058C262.791 123.868 266.898 115.774 271.051 107.09C271.204 106.771 271.586 106.636 271.903 106.788Z" fill="black" stroke="black"/>
</g>
</g>
<path d="M26.5479 61.4031C25.6713 62.8024 26.9271 66.8122 28.7001 68.2897C30.0602 69.3947 31.0665 68.888 31.3315 66.948C31.6359 64.9033 30.1377 62.0006 28.4323 61.2711C27.1328 60.7009 26.9764 60.7296 26.5479 61.4031Z" fill="black"/>
<path d="M14.8404 62.3338C13.9637 63.733 15.2196 67.7429 16.9926 69.2204C18.3527 70.3254 19.359 69.8186 19.624 67.8786C19.9284 65.8339 18.4302 62.9313 16.7248 62.2018C15.4253 61.6315 15.2688 61.6603 14.8404 62.3338Z" fill="black"/>
<path d="M9.88193 73.7075C10.2414 75.9226 14.3541 80.0018 18.0101 81.7375C19.1376 82.3003 21.0826 82.7031 22.8021 82.7769C25.5025 82.8751 25.8859 82.7851 29.3741 81.1786C32.7215 79.637 33.2387 79.2689 34.844 77.4042C36.889 74.9907 38.8424 69.8058 38.2223 68.3601C37.6796 67.095 36.8918 67.7176 35.3133 70.8252C33.5656 74.2272 32.5918 75.4981 30.558 76.9541C28.6144 78.3254 24.9796 79.3934 22.6935 79.2776C19.9776 79.1433 14.8713 76.3874 12.0947 73.5541C10.6811 72.1275 9.64514 72.1717 9.88193 73.7075Z" fill="black"/>
<g filter="url(#filter1_d_1_972)">
<path d="M56.6246 75.1308L54.6894 70.6596L59.3132 56.0816L59.1289 55.6557L50.1866 59.5262L48.8273 56.3858L61.4423 50.9256L63.3776 55.3968L58.7538 69.9748L58.9381 70.4006L68.1998 66.3919L69.5591 69.5324L56.6246 75.1308ZM71.2137 68.8162L68.0472 48.0668L74.1684 45.4174L87.1289 61.9277L83.5094 63.4943L80.7241 59.8335L74.0706 62.7133L74.8332 67.2496L71.2137 68.8162ZM73.4902 59.1093L78.4937 56.9437L72.3034 48.8474L71.8244 49.0548L73.4902 59.1093ZM89.3588 60.9625L81.2953 42.3327L84.8084 40.8121L92.8719 59.4419L89.3588 60.9625ZM96.3762 57.9252L88.3127 39.2954L94.9928 36.404L105.719 51.0374L106.198 50.83L99.1712 34.5955L102.631 33.098L110.695 51.7278L104.014 54.6191L93.2883 39.9858L92.8093 40.1931L99.836 56.4277L96.3762 57.9252ZM112.928 50.7611L109.762 30.0117L115.883 27.3623L128.843 43.8725L125.224 45.4392L122.438 41.7783L115.785 44.6582L116.548 49.1945L112.928 50.7611ZM115.205 41.0542L120.208 38.8885L114.018 30.7923L113.539 30.9996L115.205 41.0542ZM130.541 43.1377L129.205 40.0505L131.653 38.9907L126.262 26.5354L123.814 27.5951L122.477 24.5079L132.058 20.361C133.194 19.8695 134.263 19.6384 135.266 19.6678C136.279 19.6718 137.17 19.9288 137.938 20.4389C138.717 20.9235 139.317 21.6537 139.74 22.6296L139.855 22.8957C140.223 23.7474 140.367 24.5173 140.286 25.2056C140.197 25.8761 139.996 26.4581 139.683 26.9518C139.38 27.4199 139.06 27.8006 138.723 28.0938L138.931 28.5728C139.367 28.5103 139.881 28.5301 140.473 28.632C141.057 28.7162 141.628 28.9642 142.186 29.376C142.761 29.7801 143.24 30.4258 143.624 31.3129L143.74 31.579C144.185 32.6081 144.329 33.5989 144.173 34.5515C144.009 35.4863 143.585 36.3331 142.903 37.0921C142.238 37.8434 141.346 38.4609 140.228 38.9447L130.541 43.1377ZM135.12 37.3637L138.42 35.9353C139.183 35.6051 139.715 35.1539 140.015 34.5816C140.333 34.0017 140.342 33.3657 140.042 32.6738L139.927 32.4076C139.627 31.7157 139.166 31.2832 138.544 31.1103C137.921 30.9373 137.22 31.0198 136.439 31.3577L133.139 32.7861L135.12 37.3637ZM131.757 29.5924L135.003 28.1871C135.731 27.8722 136.245 27.4287 136.545 26.8564C136.862 26.2765 136.879 25.6582 136.595 25.0018L136.48 24.7356C136.188 24.0614 135.735 23.6467 135.12 23.4915C134.497 23.3186 133.813 23.3934 133.068 23.7159L129.821 25.1213L131.757 29.5924Z" fill="black"/>
</g>
<defs>
<filter id="filter0_d_1_972" x="151.722" y="50.9785" width="121.045" height="95.993" filterUnits="userSpaceOnUse" color-interpolation-filters="sRGB">
<feFlood flood-opacity="0" result="BackgroundImageFix"/>
<feColorMatrix in="SourceAlpha" type="matrix" values="0 0 0 0 0 0 0 0 0 0 0 0 0 0 0 0 0 0 127 0" result="hardAlpha"/>
<feOffset dx="-1" dy="4"/>
<feComposite in2="hardAlpha" operator="out"/>
<feColorMatrix type="matrix" values="0 0 0 0 0 0 0 0 0 0 0 0 0 0 0 0 0 0 1 0"/>
<feBlend mode="normal" in2="BackgroundImageFix" result="effect1_dropShadow_1_972"/>
<feBlend mode="normal" in="SourceGraphic" in2="effect1_dropShadow_1_972" result="shape"/>
</filter>
<filter id="filter1_d_1_972" x="48.561" y="17.8728" width="97.3096" height="61.2579" filterUnits="userSpaceOnUse" color-interpolation-filters="sRGB">
<feFlood flood-opacity="0" result="BackgroundImageFix"/>
<feColorMatrix in="SourceAlpha" type="matrix" values="0 0 0 0 0 0 0 0 0 0 0 0 0 0 0 0 0 0 127 0" result="hardAlpha"/>
<feOffset dy="4"/>
<feComposite in2="hardAlpha" operator="out"/>
<feColorMatrix type="matrix" values="0 0 0 0 0.906944 0 0 0 0 0.906944 0 0 0 0 0.906944 0 0 0 0.32 0"/>
<feBlend mode="normal" in2="BackgroundImageFix" result="effect1_dropShadow_1_972"/>
<feBlend mode="normal" in="SourceGraphic" in2="effect1_dropShadow_1_972" result="shape"/>
</filter>
<clipPath id="clip0_1_972">
<rect width="130" height="130" fill="white" transform="translate(213.916) rotate(42.6258)"/>
</clipPath>
</defs>
</svg>
